<svg id="visual" viewBox="0 0 900 600" width="900" height="600" xmlns="http://www.w3.org/2000/svg" xmlns:xlink="http://www.w3.org/1999/xlink" version="1.1"><g stroke-width="1" stroke-linejoin="bevel"><path d="M453.9 327L447.1 357L476.9 337Z" fill="#43a8a1" stroke="#43a8a1"></path><path d="M453.9 327L382.1 327L447.1 357Z" fill="#279ca4" stroke="#279ca4"></path><path d="M483.9 242L444.1 258L453.9 327Z" fill="#0183a4" stroke="#0183a4"></path><path d="M453.9 327L444.1 258L382.1 327Z" fill="#0183a4" stroke="#0183a4"></path><path d="M597.7 392L550.7 301L476.9 337Z" fill="#0890a5" stroke="#0890a5"></path><path d="M476.9 337L483.9 242L453.9 327Z" fill="#d1d79c" stroke="#d1d79c"></path><path d="M550.7 301L483.9 242L476.9 337Z" fill="#7bbd9a" stroke="#7bbd9a"></path><path d="M382.1 327L340.3 411L447.1 357Z" fill="#1a759f" stroke="#1a759f"></path><path d="M389.1 487L507.9 480L447.1 357Z" fill="#0890a5" stroke="#0890a5"></path><path d="M447.1 357L507.9 480L476.9 337Z" fill="#b4cf98" stroke="#b4cf98"></path><path d="M507.9 480L597.7 392L476.9 337Z" fill="#98c798" stroke="#98c798"></path><path d="M382.1 327L327.3 407L340.3 411Z" fill="#0890a5" stroke="#0890a5"></path><path d="M407.1 548L518.9 492L507.9 480Z" fill="#0890a5" stroke="#0890a5"></path><path d="M342.3 200L319.3 301L382.1 327Z" fill="#b4cf98" stroke="#b4cf98"></path><path d="M382.1 327L319.3 301L327.3 407Z" fill="#0183a4" stroke="#0183a4"></path><path d="M342.3 200L382.1 327L444.1 258Z" fill="#1a759f" stroke="#1a759f"></path><path d="M389.1 487L447.1 357L340.3 411Z" fill="#7bbd9a" stroke="#7bbd9a"></path><path d="M507.9 480L605.7 420L597.7 392Z" fill="#7bbd9a" stroke="#7bbd9a"></path><path d="M299.3 488L389.1 487L340.3 411Z" fill="#eddea4" stroke="#eddea4"></path><path d="M550.7 301L537.7 202L483.9 242Z" fill="#279ca4" stroke="#279ca4"></path><path d="M364.3 158L342.3 200L444.1 258Z" fill="#1a759f" stroke="#1a759f"></path><path d="M641.5 193L537.7 202L550.7 301Z" fill="#1a759f" stroke="#1a759f"></path><path d="M518.9 492L605.7 420L507.9 480Z" fill="#7bbd9a" stroke="#7bbd9a"></path><path d="M319.3 301L277.5 338L327.3 407Z" fill="#eddea4" stroke="#eddea4"></path><path d="M364.3 158L444.1 258L437.1 128Z" fill="#0890a5" stroke="#0890a5"></path><path d="M319.3 301L269.5 258L277.5 338Z" fill="#1a759f" stroke="#1a759f"></path><path d="M518.9 492L620.5 450L605.7 420Z" fill="#5fb39d" stroke="#5fb39d"></path><path d="M605.7 420L650.5 387L597.7 392Z" fill="#0183a4" stroke="#0183a4"></path><path d="M597.7 392L664.5 321L550.7 301Z" fill="#b4cf98" stroke="#b4cf98"></path><path d="M620.5 450L650.5 387L605.7 420Z" fill="#43a8a1" stroke="#43a8a1"></path><path d="M650.5 387L664.5 321L597.7 392Z" fill="#43a8a1" stroke="#43a8a1"></path><path d="M342.3 200L269.5 258L319.3 301Z" fill="#7bbd9a" stroke="#7bbd9a"></path><path d="M437.1 128L444.1 258L483.9 242Z" fill="#43a8a1" stroke="#43a8a1"></path><path d="M223.5 120L170.6 204L269.5 258Z" fill="#279ca4" stroke="#279ca4"></path><path d="M299.3 488L407.1 548L389.1 487Z" fill="#d1d79c" stroke="#d1d79c"></path><path d="M389.1 487L407.1 548L507.9 480Z" fill="#43a8a1" stroke="#43a8a1"></path><path d="M518.9 492L573.7 543L620.5 450Z" fill="#0890a5" stroke="#0890a5"></path><path d="M299.3 488L340.3 411L327.3 407Z" fill="#43a8a1" stroke="#43a8a1"></path><path d="M209.5 454L299.3 488L327.3 407Z" fill="#0890a5" stroke="#0890a5"></path><path d="M473.9 122L437.1 128L483.9 242Z" fill="#1a759f" stroke="#1a759f"></path><path d="M537.7 202L473.9 122L483.9 242Z" fill="#279ca4" stroke="#279ca4"></path><path d="M603.7 149L473.9 122L537.7 202Z" fill="#0183a4" stroke="#0183a4"></path><path d="M456.9 600L573.7 543L518.9 492Z" fill="#279ca4" stroke="#279ca4"></path><path d="M664.5 321L641.5 193L550.7 301Z" fill="#5fb39d" stroke="#5fb39d"></path><path d="M641.5 193L603.7 149L537.7 202Z" fill="#98c798" stroke="#98c798"></path><path d="M269.5 258L216.5 340L277.5 338Z" fill="#7bbd9a" stroke="#7bbd9a"></path><path d="M277.5 338L209.5 454L327.3 407Z" fill="#7bbd9a" stroke="#7bbd9a"></path><path d="M209.5 454L278.5 510L299.3 488Z" fill="#0890a5" stroke="#0890a5"></path><path d="M299.3 488L299.3 600L407.1 548Z" fill="#0183a4" stroke="#0183a4"></path><path d="M650.5 387L704.4 381L664.5 321Z" fill="#1a759f" stroke="#1a759f"></path><path d="M671.5 112L659.5 122L735.4 188Z" fill="#0890a5" stroke="#0890a5"></path><path d="M713.4 481L704.4 381L650.5 387Z" fill="#eddea4" stroke="#eddea4"></path><path d="M713.4 481L650.5 387L620.5 450Z" fill="#0890a5" stroke="#0890a5"></path><path d="M456.9 77L444.1 93L473.9 122Z" fill="#1a759f" stroke="#1a759f"></path><path d="M473.9 122L444.1 93L437.1 128Z" fill="#0183a4" stroke="#0183a4"></path><path d="M437.1 128L444.1 93L364.3 158Z" fill="#0890a5" stroke="#0890a5"></path><path d="M382.1 600L456.9 600L407.1 548Z" fill="#1a759f" stroke="#1a759f"></path><path d="M407.1 548L456.9 600L518.9 492Z" fill="#7bbd9a" stroke="#7bbd9a"></path><path d="M606.7 54L456.9 77L473.9 122Z" fill="#eddea4" stroke="#eddea4"></path><path d="M257.5 73L223.5 120L364.3 158Z" fill="#5fb39d" stroke="#5fb39d"></path><path d="M299.3 600L382.1 600L407.1 548Z" fill="#5fb39d" stroke="#5fb39d"></path><path d="M216.5 340L209.5 454L277.5 338Z" fill="#d1d79c" stroke="#d1d79c"></path><path d="M278.5 510L299.3 600L299.3 488Z" fill="#5fb39d" stroke="#5fb39d"></path><path d="M456.9 600L561.7 600L573.7 543Z" fill="#b4cf98" stroke="#b4cf98"></path><path d="M665.5 563L713.4 481L620.5 450Z" fill="#43a8a1" stroke="#43a8a1"></path><path d="M665.5 563L620.5 450L573.7 543Z" fill="#b4cf98" stroke="#b4cf98"></path><path d="M659.5 122L641.5 193L735.4 188Z" fill="#eddea4" stroke="#eddea4"></path><path d="M641.5 193L659.5 122L603.7 149Z" fill="#0890a5" stroke="#0890a5"></path><path d="M603.7 149L606.7 54L473.9 122Z" fill="#d1d79c" stroke="#d1d79c"></path><path d="M561.7 600L665.5 563L573.7 543Z" fill="#7bbd9a" stroke="#7bbd9a"></path><path d="M280.5 600L299.3 600L278.5 510Z" fill="#b4cf98" stroke="#b4cf98"></path><path d="M216.5 340L149.6 356L209.5 454Z" fill="#7bbd9a" stroke="#7bbd9a"></path><path d="M143.6 337L149.6 356L216.5 340Z" fill="#d1d79c" stroke="#d1d79c"></path><path d="M143.6 337L216.5 340L170.6 204Z" fill="#0183a4" stroke="#0183a4"></path><path d="M197.6 600L280.5 600L278.5 510Z" fill="#0890a5" stroke="#0890a5"></path><path d="M164.6 477L278.5 510L209.5 454Z" fill="#0183a4" stroke="#0183a4"></path><path d="M735.4 188L641.5 193L766.4 262Z" fill="#279ca4" stroke="#279ca4"></path><path d="M659.5 122L606.7 54L603.7 149Z" fill="#0183a4" stroke="#0183a4"></path><path d="M824.2 412L768.4 278L704.4 381Z" fill="#7bbd9a" stroke="#7bbd9a"></path><path d="M704.4 381L768.4 278L664.5 321Z" fill="#0183a4" stroke="#0183a4"></path><path d="M766.4 262L641.5 193L664.5 321Z" fill="#1a759f" stroke="#1a759f"></path><path d="M269.5 258L342.3 200L223.5 120Z" fill="#eddea4" stroke="#eddea4"></path><path d="M170.6 204L216.5 340L269.5 258Z" fill="#98c798" stroke="#98c798"></path><path d="M768.4 278L766.4 262L664.5 321Z" fill="#43a8a1" stroke="#43a8a1"></path><path d="M223.5 120L342.3 200L364.3 158Z" fill="#d1d79c" stroke="#d1d79c"></path><path d="M59.8 413L164.6 477L149.6 356Z" fill="#d1d79c" stroke="#d1d79c"></path><path d="M149.6 356L164.6 477L209.5 454Z" fill="#d1d79c" stroke="#d1d79c"></path><path d="M671.5 112L606.7 54L659.5 122Z" fill="#d1d79c" stroke="#d1d79c"></path><path d="M316.3 40L364.3 158L444.1 93Z" fill="#43a8a1" stroke="#43a8a1"></path><path d="M397.1 0L316.3 40L444.1 93Z" fill="#1a759f" stroke="#1a759f"></path><path d="M397.1 0L444.1 93L456.9 77Z" fill="#1a759f" stroke="#1a759f"></path><path d="M316.3 40L257.5 73L364.3 158Z" fill="#98c798" stroke="#98c798"></path><path d="M665.5 563L771.4 562L713.4 481Z" fill="#eddea4" stroke="#eddea4"></path><path d="M819.2 452L824.2 412L704.4 381Z" fill="#7bbd9a" stroke="#7bbd9a"></path><path d="M561.7 600L683.5 600L665.5 563Z" fill="#1a759f" stroke="#1a759f"></path><path d="M170.6 204L116.8 339L143.6 337Z" fill="#7bbd9a" stroke="#7bbd9a"></path><path d="M143.6 337L116.8 339L149.6 356Z" fill="#b4cf98" stroke="#b4cf98"></path><path d="M573.7 0L464.9 0L456.9 77Z" fill="#7bbd9a" stroke="#7bbd9a"></path><path d="M464.9 0L397.1 0L456.9 77Z" fill="#279ca4" stroke="#279ca4"></path><path d="M735.4 188L725.4 108L671.5 112Z" fill="#98c798" stroke="#98c798"></path><path d="M671.5 112L657.5 0L606.7 54Z" fill="#0890a5" stroke="#0890a5"></path><path d="M804.2 160L725.4 108L735.4 188Z" fill="#0890a5" stroke="#0890a5"></path><path d="M106.8 190L97.8 335L116.8 339Z" fill="#5fb39d" stroke="#5fb39d"></path><path d="M116.8 339L59.8 413L149.6 356Z" fill="#7bbd9a" stroke="#7bbd9a"></path><path d="M657.5 0L573.7 0L606.7 54Z" fill="#0183a4" stroke="#0183a4"></path><path d="M606.7 54L573.7 0L456.9 77Z" fill="#b4cf98" stroke="#b4cf98"></path><path d="M164.6 477L197.6 600L278.5 510Z" fill="#0890a5" stroke="#0890a5"></path><path d="M131.6 532L197.6 600L164.6 477Z" fill="#0183a4" stroke="#0183a4"></path><path d="M170.6 204L106.8 190L116.8 339Z" fill="#5fb39d" stroke="#5fb39d"></path><path d="M223.5 120L131.6 179L170.6 204Z" fill="#5fb39d" stroke="#5fb39d"></path><path d="M171.6 85L131.6 179L223.5 120Z" fill="#279ca4" stroke="#279ca4"></path><path d="M819.2 452L704.4 381L713.4 481Z" fill="#5fb39d" stroke="#5fb39d"></path><path d="M768.4 278L831.2 278L766.4 262Z" fill="#43a8a1" stroke="#43a8a1"></path><path d="M766.4 262L814.2 195L735.4 188Z" fill="#7bbd9a" stroke="#7bbd9a"></path><path d="M316.3 40L253.5 0L257.5 73Z" fill="#1a759f" stroke="#1a759f"></path><path d="M65.8 184L106.8 190L131.6 179Z" fill="#0183a4" stroke="#0183a4"></path><path d="M397.1 0L318.3 0L316.3 40Z" fill="#5fb39d" stroke="#5fb39d"></path><path d="M771.4 562L819.2 452L713.4 481Z" fill="#7bbd9a" stroke="#7bbd9a"></path><path d="M824.2 412L831.2 278L768.4 278Z" fill="#d1d79c" stroke="#d1d79c"></path><path d="M59.8 413L131.6 532L164.6 477Z" fill="#d1d79c" stroke="#d1d79c"></path><path d="M683.5 600L739.4 600L665.5 563Z" fill="#eddea4" stroke="#eddea4"></path><path d="M739.4 600L771.4 562L665.5 563Z" fill="#1a759f" stroke="#1a759f"></path><path d="M831.2 278L814.2 195L766.4 262Z" fill="#0890a5" stroke="#0890a5"></path><path d="M131.6 179L106.8 190L170.6 204Z" fill="#0183a4" stroke="#0183a4"></path><path d="M171.6 85L223.5 120L257.5 73Z" fill="#98c798" stroke="#98c798"></path><path d="M253.5 0L171.6 85L257.5 73Z" fill="#5fb39d" stroke="#5fb39d"></path><path d="M814.2 195L804.2 160L735.4 188Z" fill="#279ca4" stroke="#279ca4"></path><path d="M725.4 108L657.5 0L671.5 112Z" fill="#43a8a1" stroke="#43a8a1"></path><path d="M754.4 0L657.5 0L725.4 108Z" fill="#5fb39d" stroke="#5fb39d"></path><path d="M318.3 0L253.5 0L316.3 40Z" fill="#5fb39d" stroke="#5fb39d"></path><path d="M0 338L59.8 413L97.8 335Z" fill="#0183a4" stroke="#0183a4"></path><path d="M97.8 335L59.8 413L116.8 339Z" fill="#d1d79c" stroke="#d1d79c"></path><path d="M99.8 36L65.8 184L131.6 179Z" fill="#1a759f" stroke="#1a759f"></path><path d="M106.8 190L65.8 184L97.8 335Z" fill="#279ca4" stroke="#279ca4"></path><path d="M99.8 36L131.6 179L171.6 85Z" fill="#0890a5" stroke="#0890a5"></path><path d="M822.2 600L838.2 540L771.4 562Z" fill="#d1d79c" stroke="#d1d79c"></path><path d="M771.4 562L838.2 540L819.2 452Z" fill="#0183a4" stroke="#0183a4"></path><path d="M900 426L900 352L824.2 412Z" fill="#7bbd9a" stroke="#7bbd9a"></path><path d="M824.2 412L900 352L831.2 278Z" fill="#7bbd9a" stroke="#7bbd9a"></path><path d="M900 426L824.2 412L819.2 452Z" fill="#1a759f" stroke="#1a759f"></path><path d="M831.2 278L900 205L814.2 195Z" fill="#eddea4" stroke="#eddea4"></path><path d="M814.2 195L900 153L804.2 160Z" fill="#43a8a1" stroke="#43a8a1"></path><path d="M900 352L900 301L831.2 278Z" fill="#43a8a1" stroke="#43a8a1"></path><path d="M739.4 600L822.2 600L771.4 562Z" fill="#7bbd9a" stroke="#7bbd9a"></path><path d="M838.2 540L900 426L819.2 452Z" fill="#279ca4" stroke="#279ca4"></path><path d="M900 94L782.2 36L804.2 160Z" fill="#d1d79c" stroke="#d1d79c"></path><path d="M804.2 160L782.2 36L725.4 108Z" fill="#eddea4" stroke="#eddea4"></path><path d="M900 550L900 426L838.2 540Z" fill="#98c798" stroke="#98c798"></path><path d="M0 419L45.8 524L59.8 413Z" fill="#43a8a1" stroke="#43a8a1"></path><path d="M59.8 413L45.8 524L131.6 532Z" fill="#0183a4" stroke="#0183a4"></path><path d="M131.6 532L76.8 600L197.6 600Z" fill="#5fb39d" stroke="#5fb39d"></path><path d="M782.2 36L754.4 0L725.4 108Z" fill="#eddea4" stroke="#eddea4"></path><path d="M0 333L0 338L97.8 335Z" fill="#279ca4" stroke="#279ca4"></path><path d="M0 213L0 333L97.8 335Z" fill="#43a8a1" stroke="#43a8a1"></path><path d="M45.8 524L76.8 600L131.6 532Z" fill="#eddea4" stroke="#eddea4"></path><path d="M900 301L900 205L831.2 278Z" fill="#98c798" stroke="#98c798"></path><path d="M253.5 0L151.6 0L171.6 85Z" fill="#b4cf98" stroke="#b4cf98"></path><path d="M0 338L0 419L59.8 413Z" fill="#d1d79c" stroke="#d1d79c"></path><path d="M45.8 524L0 557L76.8 600Z" fill="#7bbd9a" stroke="#7bbd9a"></path><path d="M151.6 0L99.8 36L171.6 85Z" fill="#1a759f" stroke="#1a759f"></path><path d="M65.8 184L0 213L97.8 335Z" fill="#279ca4" stroke="#279ca4"></path><path d="M0 160L0 213L65.8 184Z" fill="#eddea4" stroke="#eddea4"></path><path d="M900 205L900 153L814.2 195Z" fill="#7bbd9a" stroke="#7bbd9a"></path><path d="M782.2 36L813.2 0L754.4 0Z" fill="#b4cf98" stroke="#b4cf98"></path><path d="M900 600L900 550L838.2 540Z" fill="#98c798" stroke="#98c798"></path><path d="M151.6 0L107.8 0L99.8 36Z" fill="#1a759f" stroke="#1a759f"></path><path d="M0 104L0 160L65.8 184Z" fill="#0183a4" stroke="#0183a4"></path><path d="M900 94L813.2 0L782.2 36Z" fill="#eddea4" stroke="#eddea4"></path><path d="M0 104L65.8 184L99.8 36Z" fill="#7bbd9a" stroke="#7bbd9a"></path><path d="M900 153L900 94L804.2 160Z" fill="#0890a5" stroke="#0890a5"></path><path d="M0 419L0 557L45.8 524Z" fill="#1a759f" stroke="#1a759f"></path><path d="M822.2 600L900 600L838.2 540Z" fill="#98c798" stroke="#98c798"></path><path d="M0 0L0 104L99.8 36Z" fill="#0183a4" stroke="#0183a4"></path><path d="M0 557L0 600L76.8 600Z" fill="#d1d79c" stroke="#d1d79c"></path><path d="M900 94L900 0L813.2 0Z" fill="#0183a4" stroke="#0183a4"></path><path d="M107.8 0L0 0L99.8 36Z" fill="#eddea4" stroke="#eddea4"></path></g></svg>